<svg xmlns="http://www.w3.org/2000/svg" width="925" height="925" viewBox="0 0 925 925">
    <defs>
        <style>
            .cls-1 {
            fill: #1890ff;
            }

            .cls-1, .cls-2 {
            fill-rule: evenodd;
            }

            .cls-2 {
            fill: #ffcf5e;
            }
        </style>
    </defs>
    <path id="HB" class="cls-1"
          d="M862.511,407.908c48.29,20.786,61.643,70.413,61.643,114.532,0,69.419-59.173,119.467-116.078,119.467-0.437,0-.868-0.046-1.3-0.054v0.054H525.052V186.916l281.72,2.542v0.3c54.626,4.46,106.95,63.812,106.95,119.169A120.211,120.211,0,0,1,862.511,407.908ZM752.243,278.7v-0.01H642.417V364.25H752.243v-0.01c24.1-.213,43.58-19.276,43.58-42.771S776.348,278.911,752.243,278.7Zm2.719,175.834c-0.125,0-.249.009-0.375,0.009v-0.009H642.417V551h112.17v-0.009c0.126,0,.25.009,0.375,0.009,27.315,0,49.458-21.6,49.458-48.234S782.277,454.531,754.962,454.531ZM291.151,427.968a111.928,111.928,0,0,0,5.22,33.469H140.005L113.774,644.45H-1L61.6,189.458H178.986l-23.68,165.22H296.371S291.151,396.658,291.151,427.968Z"/>
    <path id="图层一" class="cls-2"
          d="M744,781.841c-36.7,6.008-79.872,4.216-105.909,2.187v0.092c-151.456-4.717-318.238-148-318.238-348.1,0-87.678,21.648-177.44,67.1-246.559h20.8l-17.466,27.96H426.8l16.22-27.96H408.539L426.8,156.413l33.911,2.542-15.649,30.5h31.624c-34.365,62.189-55.1,139.577-55.1,210.973,0,242.363,100.772,320.087,215.2,360.944,0.31,0.111.615,0.213,0.921,0.318l0.382-.331A222.645,222.645,0,0,0,702.645,772a945.325,945.325,0,0,0,94.562-4.267S782.73,775.5,744,781.841ZM497.228,138.621l-10.435,20.334H460.706l10.435-20.334h26.087Z"/>
</svg>
