<svg id="海邦LOGO_拷贝_2" data-name="海邦LOGO 拷贝 2" xmlns="http://www.w3.org/2000/svg" width="2300" height="925" viewBox="0 0 2300 925">
  <defs>
    <style>
      .cls-1 {
        fill: #fff;
      }

      .cls-1, .cls-2 {
        fill-rule: evenodd;
      }

      .cls-2 {
        fill: #ffcf5e;
      }
    </style>
  </defs>
  <path id="形状_3" data-name="形状 3" class="cls-1" d="M862.511,407.908c48.29,20.786,61.643,70.413,61.643,114.532,0,69.419-59.173,119.467-116.078,119.467-0.437,0-.868-0.046-1.3-0.054v0.054H525.052V186.916l281.72,2.542v0.3c54.626,4.46,106.95,63.812,106.95,119.169A120.211,120.211,0,0,1,862.511,407.908ZM752.25,278.7v-0.011H642.406V364.25H752.25v-0.01c24.1-.222,43.562-19.281,43.562-42.771S776.347,278.919,752.25,278.7Zm2.7,175.833c-0.12,0-.239.008-0.359,0.009v-0.009H642.406V551H754.594v-0.009c0.12,0,.239.009,0.359,0.009,27.312,0,49.453-21.6,49.453-48.234S782.265,454.531,754.953,454.531Z"/>
  <path id="形状_1_拷贝" data-name="形状 1 拷贝" class="cls-1" d="M291.151,427.968a111.928,111.928,0,0,0,5.22,33.469H140.005L113.774,644.45H-1L61.6,189.458H178.986l-23.68,165.22H296.371S291.151,396.658,291.151,427.968Z"/>
  <path id="形状_2" data-name="形状 2" class="cls-2" d="M744,781.841c-36.7,6.008-79.872,4.216-105.909,2.187v0.092c-151.456-4.717-318.238-148-318.238-348.1,0-87.678,21.648-177.44,67.1-246.559h20.8l-17.466,27.96H426.8l16.22-27.96H408.539L426.8,156.413l33.911,2.542-15.649,30.5h31.624c-34.365,62.189-55.1,139.577-55.1,210.973,0,242.363,100.772,320.087,215.2,360.944,0.31,0.111.615,0.213,0.921,0.318l0.382-.331A222.645,222.645,0,0,0,702.645,772a945.348,945.348,0,0,0,94.562-4.267S782.73,775.5,744,781.841ZM497.227,138.621l-10.434,20.334H460.706l10.435-20.334h26.086Z"/>
  <path id="海邦_拷贝" data-name="海邦 拷贝" class="cls-1" d="M1313.26,511.353l12.69,47.364h34.18v-31.25q0-37.1-33.2-37.11H1219.51l0.97,68.36h36.14l-11.72-47.364h68.36Zm8.79-132.324,8.79,43.945h30.27V387.818q0-31.242-34.18-31.25H1219.51v66.406h41.99l-8.79-43.945h69.34ZM1140.41,234.5V189.576h75.68v29.3h238.77v64.453H1193.14q-53.715,0-52.73-48.828h0Zm245.11,63.476q54.69,0,54.69,54.688v70.312h20.51v67.383H1436.3v68.36h18.56v62.5H1432.4v26.367h-71.29V621.217H1205.84q-57.63,0-58.6-61.524l0.98-69.336h-22.46V422.974h18.55V350.709q0.975-53.708,56.64-52.735h184.57ZM1097.44,539.185q40.035-179.683-96.68-240.234v97.656q51.75,19.536,25.39,132.813L999.781,643.678h37.109L1074,642.7ZM1020.78,262.33a43.254,43.254,0,0,0,31.74,13.184q17.565,0,30.76-13.184a43.249,43.249,0,0,0,13.18-31.738,41.681,41.681,0,0,0-13.18-31.25q-13.185-12.692-30.76-12.7a44.114,44.114,0,0,0-31.74,12.7,41.69,41.69,0,0,0-13.19,31.25A43.258,43.258,0,0,0,1020.78,262.33Zm477.73,384.277V575.318q49.32-7.817,67.87-48.828h-79.1V463.014h83.01V443.482q0-39.059-35.16-39.062h-39.55V340.943h74.71V320.435q0-30.269-36.62-30.273h-40.04V226.685h76.66V186.646h79.1v40.039h82.03v63.477h-82.03v50.781h72.27V404.42h-72.27v58.594h80.08V526.49h-80.08q-31.74,118.161-150.88,120.117h0Zm251.47-.976h79.1V247.193h38.57V546.021l-25.88.977V617.31h45.41q58.6-1.956,61.04-54.687V394.654h-57.13q57.135-27.34,57.13-77.148V245.24q0-59.567-53.22-58.594H1749.98V645.631Z"/>
</svg>
