<svg xmlns="http://www.w3.org/2000/svg" width="608" height="631" viewBox="0 0 608 631">
    <defs>
        <style>
            .cls-1 {
            fill: #4fa5e0;
            }

            .cls-1, .cls-2 {
            fill-rule: evenodd;
            }

            .cls-2 {
            fill: #ffcf5e;
            }
        </style>
    </defs>
    <path id="hb" class="cls-1"
          d="M566.926,280.117c31.741,13.662,40.518,46.282,40.518,75.282,0,45.628-38.894,78.525-76.3,78.525-0.287,0-.57-0.031-0.857-0.036v0.036H345.115V134.86l185.174,1.67v0.2c35.906,2.931,70.3,41.944,70.3,78.33A79.013,79.013,0,0,1,566.926,280.117ZM422.252,195.181h72.2v56.24h-72.2v-56.24Zm71.923,0c15.967,0,28.91,12.589,28.91,28.12s-12.943,28.12-28.91,28.12-28.911-12.59-28.911-28.12S478.208,195.181,494.175,195.181ZM422.252,310.762h73.74v63.409h-73.74V310.762Zm73.977,0c17.952,0,32.505,14.195,32.505,31.7s-14.553,31.7-32.505,31.7-32.506-14.195-32.506-31.7S478.276,310.762,496.229,310.762ZM40.492,136.53h77.155L74.783,435.6H-0.658Zm41.15,108.6H194.8s-3.431,27.593-3.431,48.173a73.57,73.57,0,0,0,3.431,22H81.642V245.129Z"/>
    <path id="_1" data-name="1" class="cls-2"
          d="M419.412,527.4c-99.551-3.1-209.177-97.28-209.177-228.807,0-57.631,14.229-116.631,44.1-162.063h13.671l-11.481,18.378h24l10.661-18.378h22.129C290.733,177.407,277.1,228.274,277.1,275.2c0,159.305,66.237,210.393,141.451,237.247,0.289,0.1.57,0.194,0.857,0.3V527.4ZM524,516.627s-9.516,5.106-34.976,9.275c-37.4,6.123-85.045-.079-85.045-0.079l15.431-13.382a146.312,146.312,0,0,0,42.435,6.99A621.572,621.572,0,0,0,524,516.627ZM309.68,103.115h17.146l-6.858,13.366H302.821ZM253.1,136.53h15.433l12-21.72,22.29,1.671L292.535,136.53H309.68"/>
</svg>
